<?xml version="1.0" standalone="no"?>
<!DOCTYPE svg PUBLIC "-//W3C//DTD SVG 20010904//EN"
 "http://www.w3.org/TR/2001/REC-SVG-20010904/DTD/svg10.dtd">
<svg version="1.0" xmlns="http://www.w3.org/2000/svg"
 width="1262.000000pt" height="1262.000000pt" viewBox="0 0 1262.000000 1262.000000"
 preserveAspectRatio="xMidYMid meet">

<g transform="translate(0.000000,1262.000000) scale(0.100000,-0.100000)"
fill="#000000" stroke="none">
<path d="M3655 10191 c-167 -44 -273 -219 -244 -402 11 -71 25 -109 87 -239
122 -258 192 -409 192 -415 0 -4 16 -38 35 -76 19 -38 60 -127 91 -197 71
-161 64 -146 185 -412 56 -124 135 -301 176 -395 263 -597 290 -648 389 -716
44 -30 187 -89 374 -154 166 -57 404 -157 427 -178 25 -22 18 -41 -19 -53 -19
-6 -247 -132 -358 -199 -30 -18 -80 -45 -110 -60 -29 -15 -70 -37 -90 -50 -19
-12 -96 -57 -170 -100 -74 -43 -142 -83 -150 -90 -8 -7 -55 -34 -105 -60 -102
-54 -138 -75 -210 -120 -27 -17 -101 -60 -164 -96 -150 -84 -241 -168 -298
-276 -80 -151 -76 -101 -79 -983 -1 -432 2 -837 6 -900 18 -252 118 -405 352
-536 152 -85 357 -206 583 -341 110 -66 252 -149 315 -183 63 -35 147 -82 185
-105 432 -259 802 -402 1127 -436 172 -18 462 -7 637 25 142 26 361 92 509
155 141 59 555 275 772 403 52 31 111 65 130 75 95 53 240 139 380 225 85 53
198 121 250 151 229 133 349 293 387 515 14 85 16 194 16 893 -1 688 -3 804
-17 857 -14 54 -40 112 -140 307 -42 83 -46 178 -40 1055 3 443 2 916 -3 1051
l-9 246 -37 75 c-34 71 -54 91 -314 339 -153 145 -452 436 -664 647 -445 440
-441 436 -589 436 -97 0 -148 -12 -205 -50 -56 -36 -92 -87 -116 -163 -19 -60
-22 -105 -31 -511 -5 -245 -7 -611 -3 -815 3 -203 6 -544 7 -758 2 -334 0
-389 -13 -402 -14 -14 -27 -13 -120 4 -57 11 -129 23 -159 26 -90 12 -105 25
-171 162 -32 68 -59 127 -59 133 0 16 -111 269 -203 460 -30 63 -76 162 -102
220 -26 58 -56 125 -67 150 -11 25 -65 140 -120 255 -55 116 -142 307 -194
425 -174 396 -203 452 -262 498 -46 37 -147 84 -272 127 -92 31 -318 117 -410
154 -25 11 -61 24 -80 29 -58 17 -511 185 -761 282 -195 75 -376 112 -454 91z
m182 -137 c26 -9 107 -37 178 -64 72 -27 182 -67 245 -90 63 -23 174 -64 245
-90 72 -27 182 -67 245 -90 63 -23 151 -56 195 -72 44 -17 134 -50 200 -73
414 -150 416 -151 469 -265 13 -30 70 -154 124 -275 55 -121 114 -249 130
-285 17 -36 62 -137 102 -225 40 -88 85 -187 100 -220 60 -130 85 -186 152
-335 78 -173 109 -241 143 -315 124 -268 176 -389 171 -401 -3 -8 -61 -13
-188 -17 -244 -7 -405 -35 -641 -113 -74 -24 -117 -34 -135 -29 -27 7 -410
146 -634 230 -64 25 -145 54 -180 66 -68 24 -122 51 -152 78 -21 17 -130 240
-221 451 -18 41 -47 107 -65 145 -60 131 -128 280 -199 437 -39 87 -93 205
-121 264 -27 58 -50 108 -50 110 0 1 -18 42 -40 89 -22 47 -40 88 -40 90 0 2
-27 60 -60 130 -33 70 -60 128 -60 130 0 3 -48 109 -107 237 -100 219 -106
237 -106 298 -1 74 14 108 66 158 62 60 145 76 234 46z m3683 -313 c63 -24 71
-31 430 -384 815 -803 933 -923 951 -962 16 -37 17 -123 21 -1315 l3 -1275
-22 -41 c-57 -107 -178 -151 -285 -105 -51 21 -1 -25 -756 720 -343 338 -593
593 -605 616 l-22 40 -3 1269 -2 1268 24 53 c27 59 74 100 138 120 58 18 70
18 128 -4z m-855 -2651 c124 -14 192 -27 322 -63 l112 -30 30 -62 c27 -55 97
-128 601 -626 314 -310 612 -605 663 -654 60 -59 113 -101 152 -120 55 -27 69
-30 160 -30 92 1 105 3 160 32 34 17 80 52 104 78 40 43 91 134 91 163 0 29
20 8 37 -40 17 -50 18 -106 18 -918 0 -836 -1 -867 -20 -920 -52 -146 -136
-234 -320 -335 -27 -15 -102 -58 -165 -95 -63 -37 -191 -111 -285 -165 -275
-158 -489 -282 -655 -378 -462 -268 -692 -347 -1100 -377 -280 -21 -565 19
-845 117 -189 67 -291 119 -710 366 -38 23 -83 49 -100 57 -16 9 -75 43 -130
75 -95 55 -225 130 -595 343 -91 52 -190 112 -221 132 -94 65 -157 148 -196
263 -23 68 -23 73 -23 547 0 286 4 481 9 485 13 8 65 -48 117 -126 45 -69 94
-169 134 -277 23 -64 49 -91 116 -125 70 -36 70 12 -4 218 -64 179 -168 342
-301 469 l-72 69 3 271 3 271 34 79 c38 88 120 185 199 234 47 29 270 159 347
202 22 12 92 53 155 90 63 37 212 122 330 190 118 68 243 141 277 162 34 21
64 38 66 38 3 0 56 30 118 66 325 188 569 277 869 318 127 17 391 20 515 6z"/>
<path d="M4617 4373 c-4 -3 -7 -68 -7 -143 0 -139 -5 -160 -40 -160 -9 0 -81
38 -160 84 -99 58 -148 81 -156 75 -15 -12 -10 -105 7 -125 6 -7 28 -24 48
-35 314 -188 301 -172 301 -379 0 -81 5 -150 11 -161 13 -25 96 -79 121 -79
17 0 18 12 18 143 0 147 5 167 42 167 17 0 89 -36 138 -70 14 -9 46 -29 71
-42 25 -14 55 -31 66 -38 35 -22 53 -6 53 48 0 26 -6 55 -12 64 -11 14 -173
118 -184 118 -11 0 -112 71 -130 91 -40 45 -44 64 -44 216 0 164 0 163 -67
206 -43 27 -64 33 -76 20z"/>
<path d="M5890 4129 c-168 -20 -326 -104 -467 -250 -72 -74 -122 -139 -123
-157 0 -14 101 -82 123 -82 7 0 46 36 86 80 123 136 255 214 406 240 198 35
436 -69 696 -302 42 -37 82 -68 89 -68 25 0 130 73 130 90 0 10 -44 58 -99
107 -232 208 -429 313 -644 342 -87 12 -90 12 -197 0z"/>
</g>
</svg>
